<svg id="Capa_1" enable-background="new 0 0 512.25 512.25" height="512" viewBox="0 0 512.25 512.25" width="512" xmlns="http://www.w3.org/2000/svg"><path d="m512.075 136.413v375.127h-392v-511.54h255.52z" fill="#ccf1ff"/><path d="m512.075 136.413v375.127h-197v-511.54h60.52z" fill="#ade7ff"/><path d="m512.075 136.417h-136.48v-136.414z" fill="#80d6ff"/><path d="m90.045 133.6-10 17.3h-69.87l-10-16.84 44.93-134.06z" fill="#f5c66c"/><path d="m90.045 133.6-10 17.3h-34.94v-150.9z" fill="#f1ab2b"/><path d="m80.045 420.65 10 30v61.59l-44.94.01h-44.93v-61.6l10-30z" fill="#f12b0f"/><path d="m45.105 420.65h34.94l10 30v61.59l-44.94.01z" fill="#c22921"/><path d="m.175 134.081h89.87v316.569h-89.87z" fill="#f08925"/><path d="m45.11 134.081h44.935v316.569h-44.935z" fill="#f0681e"/><g fill="#fff"><path d="m195.075 195.81h240v30h-240z"/><path d="m195.078 135.813h120v30h-120z"/><path d="m195.075 315.81h180v30h-180z"/><path d="m195.075 255.81h235.95v30h-235.95z"/></g><path d="m315.075 315.81h60v30h-60z" fill="#f6f9fa"/><path d="m315.075 255.81h115.95v30h-115.95z" fill="#f6f9fa"/><path d="m315.075 195.81h120v30h-120z" fill="#f6f9fa"/></svg>