<svg id="Capa_1" enable-background="new 0 0 511.81 511.81" height="512" viewBox="0 0 511.81 511.81" width="512" xmlns="http://www.w3.org/2000/svg"><path d="m391.81 136.01v150.8l-67.588 208.99h-324.222v-495.79h260.609z" fill="#ccf1ff"/><path d="m391.81 136.01v150.8l-67.588 208.99h-128.317v-495.79h64.704z" fill="#ade7ff"/><path d="m391.81 136.01h-131.201v-136z" fill="#80d6ff"/><circle cx="391.81" cy="391.8" fill="#62de59" r="120"/><path d="m391.81 511.8c66.168 0 120-53.832 120-120s-53.832-120-120-120z" fill="#3cc569"/><path d="m436.81 376.3v30h-30.67v30.5h-30v-30.5h-29.33v-30h29.33v-30.5h30v30.5z" fill="#fff"/><path d="m436.81 376.3v30h-30.67v30.5h-14.33v-91h14.33v30.5z" fill="#daf5ff"/><path d="m72.17 196.467h247.289v30h-247.289z" fill="#fff"/><path d="m195.813 196.467h123.646v30h-123.646z" fill="#f6f9fa"/><g fill="#fff"><path d="m72.17 136.467h123.735v30h-123.735z"/><path d="m72.17 316.467h123.735v30h-123.735z"/><path d="m72.17 256.467h173.649v30h-173.649z"/></g><path d="m195.813 256.467h50.006v30h-50.006z" fill="#f6f9fa"/></svg>